<svg width="160" height="160" viewBox="0 0 160 160" fill="none" xmlns="http://www.w3.org/2000/svg">
<circle cx="80" cy="80" r="80" fill="#2E3440"/>
<path d="M107.313 111.607H110C110 119.766 108.731 125.705 106.193 129.423C103.655 133.141 100.446 135 96.5644 135C93.4294 135 90.4189 133.786 87.5327 131.359C84.6466 128.932 82.059 122.348 79.7699 111.607L73.3507 81.5527L51.1074 133.916H37L68.9468 62.4976C67.2549 53.254 65.2147 46.4117 62.8262 41.9707C60.4376 37.5297 57.4768 35.3091 53.9438 35.3091C51.1074 35.3091 48.6442 36.4194 46.5542 38.6399C44.4642 40.8604 43.2699 44.3461 42.9714 49.097H40.2843C40.4335 41.5059 41.9015 35.4382 44.6881 30.8939C47.4748 26.3496 50.9581 24.0516 55.138 24C57.8252 24 60.363 25.1361 62.7515 27.4082C65.1401 29.6804 67.2301 33.605 69.0215 39.1821C70.8129 44.7592 73.5746 56.275 77.3067 73.7292L82.6063 98.284C84.7461 108.457 86.9853 115.248 89.3241 118.656C91.6629 122.064 94.4993 123.794 97.8333 123.846C103.407 123.846 106.566 119.766 107.313 111.607Z" fill="#B38EAD"/>
<path d="M107.885 38.0186C107.687 38.0365 107.084 38.0998 106.535 38.1444C103.465 38.4505 100.503 39.2245 98.1268 40.3591C95.3179 41.7007 93.5445 43.375 92.9596 45.2203L92.7437 45.9047L91.8433 46.3727C89.3855 47.6603 87.7924 49.2173 87.2159 50.901C87.0089 51.477 87 51.63 87 53.8086C87 55.9871 87.0089 56.1401 87.2159 56.7161C87.8191 58.4716 89.5836 60.146 92.1311 61.3885C92.6803 61.6495 93.1394 61.8744 93.1483 61.8838C93.1661 61.8927 93.0854 62.1537 92.968 62.4691C92.77 63.0094 92.761 63.153 92.761 65.332C92.761 67.5195 92.77 67.6546 92.968 68.2039C93.0849 68.5188 93.3013 68.969 93.4454 69.2121L93.6975 69.6534L93.4454 70.0946C93.3013 70.3378 93.0854 70.7879 92.968 71.1029C92.77 71.6521 92.761 71.7873 92.761 73.9747C92.761 76.1533 92.77 76.3063 92.977 76.8827C93.9852 79.8264 98.0273 82.3109 103.609 83.4272C105.958 83.8952 107.183 84.0036 110 84.0036C112.818 84.0036 114.042 83.8957 116.391 83.4272C121.973 82.3109 126.015 79.8264 127.023 76.8827C127.23 76.3068 127.239 76.1537 127.239 73.9747C127.239 71.7873 127.23 71.6521 127.032 71.1029C126.915 70.7879 126.69 70.3195 126.546 70.0674C126.276 69.6172 126.276 69.6083 126.429 69.3384C126.753 68.7803 127.086 68.0691 127.149 67.7809C127.203 67.5199 127.302 67.4387 127.986 67.0965C130.47 65.8451 132.199 64.1796 132.784 62.4785C132.991 61.9021 133 61.7495 133 59.5705C133 57.3915 132.991 57.239 132.784 56.663C132.181 54.9074 130.425 53.2331 127.869 51.9905C127.329 51.7295 126.861 51.5042 126.852 51.4953C126.834 51.4864 126.915 51.2254 127.032 50.91C127.23 50.3697 127.239 50.226 127.239 48.047C127.239 45.8685 127.23 45.7155 127.023 45.1395C126.096 42.439 122.585 40.0981 117.652 38.8739C115.275 38.2796 113.349 38.0459 110.495 38.0097C109.263 37.9919 108.083 38.0008 107.885 38.0186ZM112.395 39.4949C117.716 39.9089 122.145 41.5115 124.45 43.852C125.881 45.3015 126.178 46.6158 125.422 48.1372C125.08 48.8122 123.909 49.9735 122.937 50.6128C118.121 53.7367 109.578 54.7 102.574 52.9082C99.459 52.107 97.0735 50.9095 95.5521 49.3614C93.7069 47.4889 93.7069 45.7155 95.5521 43.852C97.1007 42.2856 99.4322 41.1064 102.574 40.3051C105.563 39.54 109.164 39.2429 112.395 39.4949ZM92.7343 49.0107C92.7883 50.6762 92.9234 51.1803 93.6257 52.2243C94.5171 53.5659 96.0023 54.7178 98.1268 55.735C100.512 56.8696 103.114 57.5624 106.58 57.9675C107.633 58.0844 111.198 58.1205 112.792 58.0215L113.827 57.9586L113.061 58.2285C110.073 59.2823 105.671 59.7775 101.845 59.4804C96.5247 59.0664 92.0954 57.4638 89.7911 55.1234C89.0077 54.331 88.6382 53.71 88.4674 52.8815C88.1252 51.2611 89.4128 49.4515 91.9513 47.9574C92.3024 47.7593 92.6085 47.5974 92.6357 47.5974C92.6714 47.5974 92.7164 48.2362 92.7343 49.0107ZM127.348 53.4039C130.544 55.0243 132.056 57.086 131.444 58.9946C130.967 60.507 129.383 61.9471 126.898 63.1267C122.235 65.3414 115.177 65.9535 109.325 64.657C108.2 64.4049 106.373 63.883 106.427 63.829C106.454 63.8111 107.03 63.7389 107.714 63.667C113.305 63.0728 118.031 61.1552 120.129 58.6078C120.687 57.9328 121.191 57.0146 121.344 56.402C121.452 55.9791 121.461 55.9697 122.37 55.4928C123.64 54.8356 124.495 54.2413 125.296 53.4762C125.674 53.1162 126.034 52.828 126.088 52.819C126.151 52.8186 126.718 53.0796 127.348 53.4039ZM95.5972 62.7301C96.1192 62.8742 97.1458 63.1263 97.8926 63.2704C98.631 63.4234 99.2431 63.5497 99.252 63.5586C99.3332 63.7745 100.08 64.657 100.566 65.1072C102.925 67.2857 106.985 68.8343 111.936 69.4375C113.314 69.6083 116.744 69.6623 118.553 69.5454C119.498 69.4825 119.561 69.4825 119.3 69.5994C118.823 69.8153 117.14 70.2744 115.987 70.5086C112.639 71.1837 108.885 71.2649 105.229 70.7335C98.8647 69.8064 93.9223 66.6736 94.1833 63.7116C94.2284 63.2253 94.4805 62.4513 94.5974 62.4513C94.625 62.4513 95.0752 62.5771 95.5972 62.7301ZM96.5693 72.2093C101.016 74.9103 108.182 76.0265 114.817 75.0628C118.904 74.4596 122.775 72.9655 124.791 71.1827C125.026 70.9757 125.233 70.8138 125.251 70.8316C125.268 70.8494 125.395 71.0837 125.53 71.3536C126.547 73.3791 124.845 75.7646 121.137 77.5291C114.952 80.4638 105.085 80.4638 98.8647 77.5291C95.1559 75.7735 93.4816 73.4241 94.4626 71.3357L94.7058 70.8316L95.363 71.3536C95.7324 71.6423 96.2722 72.0295 96.5693 72.2093Z" fill="#EBCB8B"/>
<path d="M108.65 41.3317C108.65 41.872 108.596 41.926 108.047 41.926C107.435 41.926 105.806 42.2142 105.104 42.4391C104.231 42.7362 103.429 43.2403 103.069 43.7356C102.601 44.3838 102.718 45.2118 103.349 45.7432C104.222 46.4816 105.617 46.8956 108.831 47.3636C111 47.6875 112.216 47.9306 112.612 48.1377C113.134 48.4076 113.206 48.777 112.819 49.1459C112.414 49.5238 111.793 49.6862 110.523 49.7402C108.273 49.8303 106.904 49.4342 106.31 48.516L106.175 48.309L104.114 48.5338C102.988 48.6596 102.043 48.777 102.016 48.7948C101.998 48.822 102.205 49.083 102.493 49.3891C103.411 50.3885 105.032 50.9916 107.436 51.2254L108.606 51.3334L108.633 51.9905L108.66 52.6388H110.001H111.351V51.9727V51.3155L112.233 51.2526C114.592 51.0818 116.375 50.5326 117.302 49.6951C117.779 49.2628 117.923 48.9662 117.923 48.4169C117.923 47.7959 117.544 47.3185 116.707 46.8684C115.843 46.4004 114.79 46.1394 111.891 45.6531C108.146 45.041 107.714 44.9147 107.597 44.4556C107.534 44.1857 107.633 44.0144 108.011 43.7534C108.407 43.4835 109.046 43.3661 110.118 43.3661C111.486 43.3661 112.522 43.69 113.224 44.3472L113.521 44.6265L115.322 44.3294C116.303 44.1585 117.149 43.9961 117.185 43.9604C117.293 43.8346 116.375 43.0962 115.718 42.7812C114.781 42.3311 113.314 42.0072 111.757 41.9082L111.397 41.8809L111.37 41.3589L111.343 40.8459H110.001H108.65V41.3317Z" fill="#EBCB8B"/>
</svg>
